# xmcd
#
# Track frame offsets:
#	182
#	23225
#	36575
#	53450
#	68040
#	76390
#	93775
#	108725
#	118660
#	136072
#	151340
#	166707
#
# Disc length: 2480 seconds
#
# Revision: 1
# Processed by: cddbd v1.5.1PL0 Copyright (c) Steve Scherf et al.
# Submitted via: CDex 1.50Beta5
#
DISCID=8f09ae0c
DTITLE=グレープ - わすれもの
DYEAR=1997
DGENRE=
TTITLE0=精霊流し
TTITLE1=もしかしたら君は空を飛ぶんじゃないかな?
TTITLE2=紫陽花の詩
TTITLE3=ひとり占い
TTITLE4=蝉時雨
TTITLE5=春への幻想
TTITLE6=雪の朝
TTITLE7=魔法使いとフリージア
TTITLE8=告悔
TTITLE9=哀しみの白い影
TTITLE10=しおれた花
TTITLE11=あこがれ
EXTD=
EXTT0=
EXTT1=
EXTT2=
EXTT3=
EXTT4=
EXTT5=
EXTT6=
EXTT7=
EXTT8=
EXTT9=
EXTT10=
EXTT11=
PLAYORDER=
